<svg width="24" height="22" viewBox="0 0 24 22" fill="none" xmlns="http://www.w3.org/2000/svg">
<path d="M22.8055 7.45613C22.6495 7.27197 22.4205 7.16579 22.1792 7.16579H19.9005L15.4254 1.07039C15.157 0.704555 14.6434 0.626566 14.278 0.894434C13.9125 1.16286 13.8339 1.67677 14.1021 2.04205L17.8638 7.16583H5.91732L9.67908 2.04205C9.9475 1.67647 9.86844 1.16286 9.50312 0.894434C9.1378 0.626265 8.62393 0.70507 8.35551 1.07039L3.88038 7.16583H1.82088C1.57952 7.16583 1.3505 7.27201 1.19452 7.45617C1.03854 7.64034 0.971513 7.88359 1.01117 8.12163L3.06341 20.4351C3.12937 20.8308 3.47196 21.1211 3.87308 21.1211H20.1269C20.5283 21.1211 20.8706 20.8311 20.9365 20.4351L22.9888 8.12163C23.0285 7.88384 22.9615 7.6403 22.8055 7.45613ZM19.4316 19.4793H4.56844L2.78983 8.80763H21.2103L19.4316 19.4793Z" fill="white" stroke="white" stroke-width="0.6"/>
<path d="M11.9996 10.7236C11.5462 10.7236 11.1787 11.091 11.1787 11.5445V16.9351C11.1787 17.3885 11.5462 17.7559 11.9996 17.7559C12.453 17.7559 12.8205 17.3887 12.8205 16.935V11.5445C12.8205 11.091 12.453 10.7236 11.9996 10.7236Z" fill="white" stroke="white" stroke-width="0.6"/>
<path d="M16.2388 10.7236C15.7854 10.7236 15.418 11.091 15.418 11.5445V16.9351C15.418 17.3885 15.7854 17.7559 16.2388 17.7559C16.6923 17.7559 17.0598 17.3887 17.0597 16.935V11.5445C17.0597 11.091 16.6923 10.7236 16.2388 10.7236Z" fill="white" stroke="white" stroke-width="0.6"/>
<path d="M7.76228 10.7236C7.30888 10.7236 6.94141 11.091 6.94141 11.5445V16.9351C6.94141 17.3885 7.30888 17.7559 7.76228 17.7559C8.21569 17.7559 8.58316 17.3887 8.58316 16.935V11.5445C8.58316 11.091 8.21569 10.7236 7.76228 10.7236Z" fill="white" stroke="white" stroke-width="0.6"/>
</svg>
