<svg width="20" height="18" viewBox="0 0 20 18" fill="none" xmlns="http://www.w3.org/2000/svg">
<path d="M18.8409 6.15927C18.7133 6.00859 18.5259 5.92172 18.3284 5.92172H16.464L12.8026 0.934574C12.583 0.635253 12.1628 0.571444 11.8639 0.790609C11.5647 1.01023 11.5005 1.4307 11.7199 1.72957L14.7977 5.92175H5.02326L8.10106 1.72957C8.32068 1.43046 8.256 1.01023 7.9571 0.790609C7.6582 0.571198 7.23776 0.635675 7.01814 0.934574L3.35667 5.92175H1.67163C1.47416 5.92175 1.28677 6.00863 1.15915 6.15931C1.03154 6.30999 0.976693 6.50901 1.00914 6.70377L2.68825 16.7784C2.74221 17.1022 3.02251 17.3397 3.3507 17.3397H16.6493C16.9777 17.3397 17.2578 17.1024 17.3117 16.7784L18.9908 6.70377C19.0233 6.50922 18.9685 6.30995 18.8409 6.15927ZM16.0804 15.9964H3.91963L2.46441 7.26504H17.5357L16.0804 15.9964Z" fill="#259499" stroke="#259499" stroke-width="0.6"/>
<path d="M9.99975 8.83228C9.62878 8.83228 9.32812 9.13293 9.32812 9.5039V13.9144C9.32812 14.2854 9.62878 14.586 9.99975 14.586C10.3707 14.586 10.6714 14.2856 10.6714 13.9144V9.5039C10.6714 9.13293 10.3707 8.83228 9.99975 8.83228Z" fill="#259499" stroke="#259499" stroke-width="0.6"/>
<path d="M13.4705 8.83228C13.0995 8.83228 12.7988 9.13293 12.7988 9.5039V13.9144C12.7988 14.2854 13.0995 14.586 13.4705 14.586C13.8415 14.586 14.1421 14.2856 14.1421 13.9144V9.5039C14.1421 9.13293 13.8414 8.83228 13.4705 8.83228Z" fill="#259499" stroke="#259499" stroke-width="0.6"/>
<path d="M6.53003 8.83228C6.15906 8.83228 5.8584 9.13293 5.8584 9.5039V13.9144C5.8584 14.2854 6.15906 14.586 6.53003 14.586C6.901 14.586 7.20165 14.2856 7.20165 13.9144V9.5039C7.20165 9.13293 6.901 8.83228 6.53003 8.83228Z" fill="#259499" stroke="#259499" stroke-width="0.6"/>
</svg>
